<svg id="Layer_1" data-name="Layer 1" xmlns="http://www.w3.org/2000/svg" viewBox="0 0 500 500"><defs><style>.cls-1{fill:#f4b833;}.cls-2{fill:#fff;}</style></defs><circle class="cls-1" cx="371.69" cy="266.42" r="20.41"/><path class="cls-2" d="M121.72,272.17V278a2.56,2.56,0,0,1-3,2.5,42.64,42.64,0,0,0-8.62-.86,37.9,37.9,0,0,0-22.88,7.16,2.55,2.55,0,0,0-1.06,2.07v23.44a2.55,2.55,0,0,1-2.55,2.55H75.45a2.55,2.55,0,0,1-2.55-2.55v-40.4a2.55,2.55,0,0,1,2.55-2.54h8.11a2.55,2.55,0,0,1,2.55,2.54h0a2.55,2.55,0,0,0,4,2.13,34.55,34.55,0,0,1,19.38-5.45,46.82,46.82,0,0,1,10.26,1.08A2.56,2.56,0,0,1,121.72,272.17Z"/><path class="cls-2" d="M174,298.57h10.21a1.56,1.56,0,0,1,1.47,2.09c-3.78,10.16-14.68,15-30.47,15-17.31,0-30.75-6.8-30.75-23.48S137.55,268.6,156,268.6c16.84,0,30.39,5.64,31.1,25a1.56,1.56,0,0,1-1.56,1.62H140.1a1.56,1.56,0,0,0-1.45,2.14c2.31,5.6,8.71,7.52,16.59,7.52,8.7,0,14.16-1.55,17.53-5.73A1.62,1.62,0,0,1,174,298.57ZM140.9,286.83h29.62a1.56,1.56,0,0,0,1.31-2.4c-2.9-4.47-8.71-5.79-15.9-5.79-7.8,0-13.59,1.33-16.36,5.81A1.56,1.56,0,0,0,140.9,286.83Z"/><path class="cls-2" d="M201,298.88a5.19,5.19,0,0,1,4.52,2.53c1.73,3,7.3,4.19,19.16,4.19,14.29,0,16.6-.93,16.6-4.48s-2.16-3.71-18.15-4.71c-20-1.16-29.81-2.7-29.81-13.67,0-11.9,13.9-14.14,30.12-14.14,14.37,0,25.43,1.58,28.64,9.45a3.89,3.89,0,0,1-3.64,5.31h-5.2A5.44,5.44,0,0,1,239,281.3c-1.71-2.08-6.73-2.66-16.38-2.66-12.51,0-16.07.93-16.07,3.56,0,2.86,2.4,3.32,18.08,4.48,17.76,1.31,29.89,1.77,29.89,13.9,0,12.82-11.59,15.06-29.12,15.06-13.36,0-26-1.3-31.2-8.34a5.3,5.3,0,0,1,4.29-8.42Z"/><path class="cls-2" d="M286.67,280.42a4,4,0,0,0-4,4v9.12c0,8.81,1.7,11.05,9.73,11.05,2.83,0,4.81,0,7.45-.24a4,4,0,0,1,4.37,4V311a4,4,0,0,1-3.54,4,99.28,99.28,0,0,1-12,.64c-11.74,0-19.31-4.4-19.31-14.44V284.43a4,4,0,0,0-4-4h-4a4,4,0,0,1-4-4v-3a4,4,0,0,1,4-4h4a4,4,0,0,0,4-4V263a4,4,0,0,1,2.91-3.85l7.9-2.25a2,2,0,0,1,2.48,1.87v6.62a4,4,0,0,0,4,4h13.54a4,4,0,0,1,4,4v3a4,4,0,0,1-4,4Z"/><path class="cls-2" d="M358.59,298.57h10.23a1.56,1.56,0,0,1,1.47,2.09c-3.77,10.16-14.67,15-30.47,15-17.3,0-30.74-6.8-30.74-23.48s13.05-23.56,31.51-23.56c16.85,0,30.39,5.64,31.1,25a1.56,1.56,0,0,1-1.56,1.62H324.69a1.56,1.56,0,0,0-1.45,2.14c2.31,5.6,8.7,7.52,16.58,7.52,8.72,0,14.18-1.56,17.55-5.74A1.54,1.54,0,0,1,358.59,298.57Zm-33.11-11.74H355.1a1.56,1.56,0,0,0,1.32-2.4c-2.91-4.47-8.72-5.79-15.9-5.79-7.8,0-13.59,1.33-16.37,5.82A1.56,1.56,0,0,0,325.48,286.83Z"/><path class="cls-2" d="M427.1,272.17V278a2.56,2.56,0,0,1-3.05,2.5,42.64,42.64,0,0,0-8.62-.86,37.9,37.9,0,0,0-22.88,7.16,2.55,2.55,0,0,0-1.06,2.07v23.44a2.55,2.55,0,0,1-2.55,2.55h-8.11a2.55,2.55,0,0,1-2.55-2.55v-40.4a2.55,2.55,0,0,1,2.55-2.54h8.11a2.55,2.55,0,0,1,2.55,2.54h0a2.55,2.55,0,0,0,3.95,2.13,34.57,34.57,0,0,1,19.38-5.45,46.82,46.82,0,0,1,10.26,1.08A2.55,2.55,0,0,1,427.1,272.17Z"/></svg>