<svg id="Layer_1" data-name="Layer 1" xmlns="http://www.w3.org/2000/svg" viewBox="0 0 500 500"><defs><style>.cls-1{fill:#fff;}.cls-2{fill:#3798d4;}</style></defs><circle class="cls-1" cx="250" cy="250" r="86.95"/><path class="cls-2" d="M235.92,331.69l-.78-84.16a5.3,5.3,0,0,1,5.26-5.36l16.86-.16a5.26,5.26,0,0,1,5.36,5.26,5.36,5.36,0,0,0,5.31,5.26,5.44,5.44,0,0,0,3-.94c12.18-8.12,25.87-11.56,40.23-11.71a98.09,98.09,0,0,1,21.45,2,5.28,5.28,0,0,1,4.21,5.15l.16,12.18a5.36,5.36,0,0,1-6.35,5.26,88.3,88.3,0,0,0-18-1.62c-14.73.16-31.54,3.54-47.52,15.36a5.26,5.26,0,0,0-2.13,4.32l.47,48.87a5.37,5.37,0,0,1-5.26,5.36l-16.92.16A5.37,5.37,0,0,1,235.92,331.69Z"/></svg>