<?xml version="1.0" encoding="iso-8859-1"?>
<!-- Generator: Adobe Illustrator 26.0.1, SVG Export Plug-In . SVG Version: 6.00 Build 0)  -->
<svg version="1.1" id="Layer_1" xmlns="http://www.w3.org/2000/svg" xmlns:xlink="http://www.w3.org/1999/xlink" x="0px" y="0px"
	 viewBox="0 0 500 500" style="enable-background:new 0 0 500 500;" xml:space="preserve">
<g>
	<circle style="fill:#F4B833;" cx="-1137.851" cy="229.91" r="28.818"/>
	<g>
		<path style="fill:#3698D4;" d="M-1490.732,238.027v8.246c0,2.272-2.079,3.966-4.307,3.525c-4.241-0.838-8.044-1.21-12.156-1.21
			c-10.006,0-21.408,2.192-32.299,10.101c-0.938,0.681-1.501,1.764-1.501,2.924v33.097c0,1.986-1.61,3.596-3.596,3.596h-11.451
			c-1.986,0-3.596-1.61-3.596-3.596v-57.027c0-1.986,1.61-3.596,3.596-3.596h11.451c1.986,0,3.596,1.61,3.596,3.596v0
			c0,2.862,3.181,4.575,5.572,3.002c8.297-5.458,17.61-7.689,27.356-7.689c6.051,0,10.663,0.685,14.488,1.513
			C-1491.919,234.868-1490.732,236.329-1490.732,238.027z"/>
		<path style="fill:#3698D4;" d="M-1416.889,275.3h14.416c1.524,0,2.605,1.516,2.074,2.944
			c-5.332,14.341-20.72,21.152-43.015,21.152c-24.423,0-43.394-9.595-43.394-33.145c0-23.661,18.426-33.255,44.485-33.255
			c23.775,0,42.901,7.956,43.9,35.334c0.045,1.246-0.955,2.283-2.202,2.283h-64.147c-1.555,0-2.641,1.577-2.048,3.014
			c3.261,7.909,12.287,10.615,23.407,10.615c12.285,0,19.998-2.187,24.75-8.08C-1418.23,275.622-1417.582,275.3-1416.889,275.3z
			 M-1463.657,258.728h41.817c1.742,0,2.804-1.934,1.854-3.394c-4.099-6.302-12.302-8.164-22.447-8.164
			c-11.011,0-19.179,1.869-23.101,8.2C-1466.442,256.834-1465.381,258.728-1463.657,258.728z"/>
		<path style="fill:#3698D4;" d="M-1378.823,275.737c2.602,0,5.079,1.315,6.381,3.568c2.443,4.228,10.307,5.918,27.042,5.918
			c20.171,0,23.442-1.309,23.442-6.323c0-4.907-3.052-5.234-25.622-6.651c-28.239-1.635-42.087-3.816-42.087-19.299
			c0-16.792,19.626-19.953,42.522-19.953c20.282,0,35.893,2.219,40.422,13.329c1.461,3.583-1.256,7.496-5.126,7.496h-7.341
			c-2.316,0-4.448-1.116-5.918-2.906c-2.414-2.938-9.506-3.746-23.128-3.746c-17.662,0-22.678,1.309-22.678,5.016
			c0,4.034,3.379,4.689,25.514,6.324c25.077,1.854,42.195,2.507,42.195,19.626c0,18.099-16.355,21.261-41.105,21.261
			c-18.858,0-36.641-1.836-44.039-11.777c-3.651-4.906-0.068-11.883,6.047-11.883H-1378.823z"/>
		<path style="fill:#3698D4;" d="M-1257.869,249.678c-3.122,0-5.653,2.531-5.653,5.653v12.882c0,12.429,2.399,15.592,13.738,15.592
			c3.995,0,6.786,0,10.518-0.341c3.313-0.302,6.165,2.321,6.165,5.648v3.768c0,2.868-2.147,5.272-4.994,5.615
			c-4.979,0.6-10.53,0.901-16.922,0.901c-16.573,0-27.259-6.215-27.259-20.389v-23.676c0-3.122-2.531-5.653-5.653-5.653h-5.594
			c-3.122,0-5.653-2.531-5.653-5.653v-4.285c0-3.122,2.531-5.653,5.653-5.653h5.594c3.122,0,5.653-2.531,5.653-5.653v-3.381
			c0-2.526,1.675-4.745,4.104-5.437l11.146-3.175c1.756-0.5,3.504,0.819,3.504,2.645v9.349c0,3.122,2.531,5.653,5.653,5.653h19.114
			c3.122,0,5.653,2.531,5.653,5.653v4.285c0,3.122-2.531,5.653-5.653,5.653H-1257.869z"/>
		<path style="fill:#3698D4;" d="M-1156.347,275.3h14.446c1.524,0,2.605,1.516,2.074,2.944
			c-5.333,14.341-20.72,21.152-43.015,21.152c-24.423,0-43.395-9.595-43.395-33.145c0-23.661,18.427-33.255,44.486-33.255
			c23.775,0,42.901,7.956,43.9,35.334c0.046,1.246-0.955,2.283-2.202,2.283h-64.147c-1.555,0-2.641,1.577-2.048,3.014
			c3.261,7.909,12.287,10.615,23.407,10.615c12.301,0,20.017-2.193,24.769-8.104C-1157.651,275.613-1157.02,275.3-1156.347,275.3z
			 M-1203.089,258.728h41.82c1.742,0,2.804-1.934,1.854-3.394c-4.099-6.302-12.302-8.164-22.447-8.164
			c-11.013,0-19.181,1.869-23.103,8.203C-1205.87,256.836-1204.81,258.728-1203.089,258.728z"/>
		<path style="fill:#3698D4;" d="M-1059.64,238.027v8.246c0,2.272-2.079,3.966-4.307,3.525c-4.241-0.838-8.044-1.21-12.156-1.21
			c-10.006,0-21.408,2.192-32.299,10.101c-0.938,0.681-1.501,1.764-1.501,2.924v33.097c0,1.986-1.61,3.596-3.596,3.596h-11.452
			c-1.986,0-3.596-1.61-3.596-3.596v-57.027c0-1.986,1.61-3.596,3.596-3.596h11.452c1.986,0,3.596,1.61,3.596,3.596v0
			c0,2.862,3.181,4.575,5.572,3.002c8.297-5.458,17.61-7.689,27.356-7.689c6.051,0,10.663,0.685,14.488,1.513
			C-1060.827,234.868-1059.64,236.329-1059.64,238.027z"/>
	</g>
</g>
<g>
	<g>
		<circle style="fill:#F4B833;" cx="-618.211" cy="229.666" r="28.818"/>
		<g>
			<path style="fill:#FFFFFF;" d="M-971.092,237.783v8.246c0,2.272-2.079,3.966-4.307,3.525c-4.241-0.838-8.044-1.21-12.156-1.21
				c-10.006,0-21.408,2.192-32.299,10.101c-0.938,0.681-1.501,1.764-1.501,2.924v33.097c0,1.986-1.61,3.596-3.596,3.596h-11.451
				c-1.986,0-3.596-1.61-3.596-3.596v-57.027c0-1.986,1.61-3.596,3.596-3.596h11.451c1.986,0,3.596,1.61,3.596,3.596v0
				c0,2.862,3.181,4.575,5.572,3.002c8.297-5.458,17.61-7.689,27.356-7.689c6.051,0,10.663,0.685,14.488,1.513
				C-972.28,234.624-971.092,236.085-971.092,237.783z"/>
			<path style="fill:#FFFFFF;" d="M-897.25,275.056h14.416c1.523,0,2.605,1.516,2.074,2.944
				c-5.332,14.341-20.72,21.152-43.015,21.152c-24.423,0-43.394-9.595-43.394-33.145c0-23.661,18.426-33.255,44.485-33.255
				c23.775,0,42.901,7.956,43.9,35.334c0.045,1.246-0.955,2.283-2.202,2.283h-64.147c-1.555,0-2.641,1.577-2.048,3.014
				c3.261,7.909,12.287,10.615,23.407,10.615c12.285,0,19.998-2.187,24.75-8.08C-898.59,275.378-897.942,275.056-897.25,275.056z
				 M-944.018,258.484h41.817c1.742,0,2.804-1.934,1.854-3.394c-4.099-6.302-12.302-8.164-22.447-8.164
				c-11.011,0-19.179,1.869-23.101,8.2C-946.803,256.59-945.741,258.484-944.018,258.484z"/>
			<path style="fill:#FFFFFF;" d="M-859.183,275.492c2.602,0,5.079,1.315,6.381,3.568c2.443,4.228,10.307,5.918,27.042,5.918
				c20.171,0,23.442-1.309,23.442-6.323c0-4.907-3.053-5.234-25.622-6.651c-28.239-1.635-42.087-3.816-42.087-19.299
				c0-16.792,19.626-19.953,42.522-19.953c20.282,0,35.893,2.219,40.422,13.329c1.461,3.583-1.257,7.496-5.126,7.496h-7.341
				c-2.316,0-4.447-1.116-5.918-2.906c-2.414-2.938-9.506-3.746-23.128-3.746c-17.662,0-22.678,1.309-22.678,5.016
				c0,4.034,3.379,4.689,25.514,6.324c25.077,1.854,42.195,2.507,42.195,19.626c0,18.099-16.355,21.261-41.105,21.261
				c-18.858,0-36.641-1.836-44.039-11.777c-3.651-4.906-0.068-11.883,6.047-11.883H-859.183z"/>
			<path style="fill:#FFFFFF;" d="M-738.23,249.434c-3.122,0-5.653,2.531-5.653,5.653v12.882c0,12.429,2.399,15.592,13.738,15.592
				c3.995,0,6.786,0,10.518-0.341c3.313-0.302,6.165,2.321,6.165,5.648v3.768c0,2.868-2.147,5.272-4.994,5.615
				c-4.978,0.6-10.53,0.901-16.922,0.901c-16.573,0-27.259-6.215-27.259-20.389v-23.676c0-3.122-2.531-5.653-5.653-5.653h-5.594
				c-3.122,0-5.653-2.531-5.653-5.653v-4.285c0-3.122,2.531-5.653,5.653-5.653h5.594c3.122,0,5.653-2.531,5.653-5.653v-3.381
				c0-2.526,1.675-4.745,4.104-5.437l11.146-3.175c1.757-0.5,3.504,0.819,3.504,2.645v9.349c0,3.122,2.531,5.653,5.653,5.653h19.114
				c3.122,0,5.653,2.531,5.653,5.653v4.285c0,3.122-2.531,5.653-5.653,5.653H-738.23z"/>
			<path style="fill:#FFFFFF;" d="M-636.707,275.056h14.446c1.523,0,2.605,1.516,2.074,2.944
				c-5.332,14.341-20.72,21.152-43.015,21.152c-24.423,0-43.395-9.595-43.395-33.145c0-23.661,18.427-33.255,44.486-33.255
				c23.775,0,42.901,7.956,43.9,35.334c0.045,1.246-0.955,2.283-2.202,2.283h-64.147c-1.555,0-2.641,1.577-2.048,3.014
				c3.261,7.909,12.287,10.615,23.407,10.615c12.301,0,20.017-2.193,24.769-8.104C-638.012,275.369-637.381,275.056-636.707,275.056
				z M-683.449,258.484h41.82c1.742,0,2.804-1.934,1.854-3.394c-4.099-6.302-12.302-8.164-22.447-8.164
				c-11.013,0-19.181,1.869-23.103,8.203C-686.231,256.592-685.171,258.484-683.449,258.484z"/>
			<path style="fill:#FFFFFF;" d="M-540,237.783v8.246c0,2.272-2.079,3.966-4.307,3.525c-4.241-0.838-8.044-1.21-12.156-1.21
				c-10.006,0-21.408,2.192-32.299,10.101c-0.938,0.681-1.501,1.764-1.501,2.924v33.097c0,1.986-1.61,3.596-3.596,3.596h-11.453
				c-1.986,0-3.596-1.61-3.596-3.596v-57.027c0-1.986,1.61-3.596,3.596-3.596h11.453c1.986,0,3.596,1.61,3.596,3.596v0
				c0,2.862,3.181,4.575,5.572,3.002c8.297-5.458,17.61-7.689,27.356-7.689c6.051,0,10.663,0.685,14.488,1.513
				C-541.188,234.624-540,236.085-540,237.783z"/>
		</g>
	</g>
</g>
<g>
	<circle style="fill:#3798D4;" cx="-270" cy="250" r="100"/>
	<path style="fill:#FFFFFF;" d="M-286.19,343.954l-0.898-96.795c-0.06-3.352,2.634-6.106,6.046-6.166l19.395-0.179
		c3.412-0.06,6.166,2.693,6.166,6.046c0.06,3.532,2.993,6.046,6.106,6.046c1.137,0,2.335-0.359,3.412-1.077
		c14.008-9.338,29.751-13.289,46.273-13.469c10.296-0.12,18.138,1.018,24.663,2.335c2.813,0.598,4.849,3.053,4.849,5.926
		l0.179,14.008c0,3.831-3.472,6.764-7.303,6.046c-7.183-1.377-13.648-1.915-20.652-1.856c-16.941,0.18-36.276,4.071-54.653,17.659
		c-1.556,1.197-2.514,2.993-2.454,4.969l0.539,56.209c0,3.352-2.694,6.106-6.046,6.165l-19.455,0.18
		C-283.376,350-286.13,347.306-286.19,343.954z"/>
</g>
<g>
	<circle style="fill:#FFFFFF;" cx="250" cy="250" r="100"/>
	<path style="fill:#3798D4;" d="M233.81,343.954l-0.898-96.795c-0.06-3.352,2.634-6.106,6.046-6.166l19.395-0.179
		c3.412-0.06,6.166,2.693,6.166,6.046c0.06,3.532,2.993,6.046,6.106,6.046c1.137,0,2.335-0.359,3.412-1.077
		c14.008-9.338,29.751-13.289,46.273-13.469c10.296-0.12,18.138,1.018,24.663,2.335c2.813,0.598,4.849,3.053,4.849,5.926
		L350,260.628c0,3.831-3.472,6.764-7.303,6.046c-7.183-1.377-13.648-1.915-20.652-1.856c-16.941,0.18-36.276,4.071-54.653,17.659
		c-1.556,1.197-2.514,2.993-2.454,4.969l0.539,56.209c0,3.352-2.694,6.106-6.046,6.165L239.976,350
		C236.624,350,233.87,347.306,233.81,343.954z"/>
</g>
</svg>
